<?xml version="1.0" encoding="utf-8"?>
<!-- Generator: Adobe Illustrator 26.5.0, SVG Export Plug-In . SVG Version: 6.00 Build 0)  -->
<svg version="1.1" id="Layer_1" xmlns="http://www.w3.org/2000/svg" xmlns:xlink="http://www.w3.org/1999/xlink" x="0px" y="0px"
	 viewBox="0 0 612 792" style="enable-background:new 0 0 612 792;" xml:space="preserve">
<style type="text/css">
	.st0{fill:#00BEFF;}
</style>
<g>
	<g>
		<path class="st0" d="M61.1,343.8c-2.1,0.4-28.2,0.4-30.5,0c0-0.4,0-0.9,0.1-1.4c2-10.6,4.7-21.1,8-31.4
			c5-15.9,11.4-31.2,19.2-45.9c10.1-19.2,22.3-37.1,36.6-53.5c14.9-17.1,31.6-32.2,50.1-45.2c19.3-13.6,40-24.6,62.1-33
			c11.7-4.5,23.7-8.1,35.8-10.9c7.6-1.8,15.3-3.2,23-4.3c5.9-0.8,11.8-1.5,17.7-2c7.6-0.6,15.1-1,22.7-0.9c5.9,0,11.8,0.1,17.7,0.6
			c4.8,0.4,9.6,0.7,14.4,1.2c7.1,0.8,14.2,1.9,21.2,3.3c13.1,2.5,25.9,6,38.4,10.3c26,9,50.1,21.6,72.4,37.6
			c17.8,12.8,33.7,27.5,48.1,44c13.5,15.5,25,32.3,34.8,50.4c11.4,21.2,20,43.5,25.6,66.8c1,4.3,1.9,8.7,2.8,13
			c0.1,0.4,0.1,0.8,0.2,1.2c-0.6,0.4-1.2,0.3-1.8,0.3c-4.5,0-8.9,0-13.4,0c-4.3,0-8.7,0-13,0c-0.8,0-1.6,0-2.3,0
			c-0.6-0.7-0.6-1.5-0.8-2.3c-1.9-8.4-4.2-16.7-6.9-24.8c-5.2-15.6-11.8-30.5-19.9-44.8c-7.1-12.5-15.3-24.4-24.4-35.5
			c-9.5-11.5-20-22.1-31.4-31.8c-17-14.4-35.6-26.3-55.7-35.7c-14.9-7-30.4-12.4-46.3-16.3c-7.8-1.9-15.6-3.4-23.5-4.6
			c-5.4-0.8-10.9-1.4-16.3-1.8c-8.1-0.7-16.2-0.8-24.3-0.7c-4.2,0-8.4,0.2-12.6,0.5c-3.4,0.2-6.7,0.6-10.1,0.9
			c-3.8,0.4-7.6,0.9-11.4,1.5c-6.6,1-13.1,2.3-19.6,3.8c-14.6,3.5-28.8,8.3-42.5,14.3c-15.4,6.8-29.9,15-43.6,24.7
			c-9,6.4-17.6,13.2-25.6,20.8c-13.1,12.3-25,25.7-35.3,40.5c-10.1,14.5-18.6,29.9-25.4,46.2c-5.8,13.9-10.4,28.2-13.6,42.9
			c-0.1,0.6-0.3,1.2-0.4,1.7C61.3,343.6,61.2,343.7,61.1,343.8z"/>
		<path class="st0" d="M40.6,485.6c10.6,0,21.1,0,31.6,0c0.6,0.5,0.7,1.2,1,1.8c2.7,6.7,5.6,13.3,8.8,19.8
			c7.9,15.9,17.4,30.8,28.4,44.7c11,13.7,23.2,26.2,36.8,37.3c13.6,11.1,28.2,20.8,43.8,28.8c14.3,7.4,29.2,13.4,44.6,17.9
			c8.4,2.5,17,4.5,25.6,6c5.2,0.9,10.4,1.7,15.7,2.4c3.1,0.4,6.2,0.6,9.3,0.9c3.5,0.3,7,0.6,10.4,0.6c6.7,0.1,13.5,0.1,20.2,0
			c4.2-0.1,8.4-0.5,12.6-0.9c3.7-0.3,7.4-0.7,11.1-1.2c4.9-0.7,9.7-1.5,14.6-2.5c12.9-2.6,25.6-6.2,37.9-10.7
			c24.7-9.2,47.3-21.9,68-38.2c9.4-7.4,18.1-15.5,26.4-24.1c12.8-13.3,23.8-28,33.3-43.9c6.7-11.1,12.4-22.7,17.3-34.7
			c0.4-0.9,0.8-1.8,1.1-2.7c0.3-0.9,0.9-1.2,1.7-1.2c0.4,0,0.7,0,1.1,0c9.1,0,18.3,0,27.4,0c0.7,0,1.3,0,2.1,0.1
			c-0.1,0.5-0.1,0.9-0.2,1.3c-1.5,4.1-2.9,8.2-4.5,12.2c-9.4,23.7-21.7,45.7-37.1,66c-15.2,20.1-32.8,37.8-52.7,53.1
			c-16.7,12.8-34.5,23.6-53.6,32.4c-17.9,8.2-36.4,14.5-55.6,18.8c-7.6,1.7-15.2,3.1-22.9,4.1c-5.6,0.8-11.2,1.4-16.9,1.8
			c-6.6,0.5-13.2,0.8-19.8,0.8c-5,0-10,0-15-0.3c-4.4-0.2-8.8-0.6-13.1-0.9c-3.8-0.3-7.5-0.7-11.3-1.2c-4.6-0.6-9.2-1.4-13.7-2.2
			c-7.7-1.4-15.4-3.2-23-5.3c-11.9-3.3-23.5-7.3-34.9-12.1c-23.2-9.8-44.8-22.5-64.6-38.1c-23.1-18.2-43-39.6-59.4-64
			C59.7,532,49,510.5,41,487.7c-0.2-0.5-0.3-1-0.5-1.6C40.5,486,40.6,485.9,40.6,485.6z"/>
		<path class="st0" d="M201.1,257.5c-0.1-1-0.1-1.9-0.1-2.7c0-4.8-0.1-9.5-0.1-14.3c0-9.4,0.1-18.8,0.2-28.2c0-0.7-0.1-1.4,0.2-2.2
			c0.4,0,0.8-0.1,1.2-0.1c5.7,0,11.4,0,17.1-0.1c1,0,1.8,0.3,2.7,0.9c4.5,3.2,9.6,5.2,15.1,6c8.2,1.2,15.9-0.5,23-4.8
			c4.6-2.8,8.2-6.5,11.1-10.9c0.3-0.5,0.6-1,1-1.6c0.7,0,1.5-0.1,2.3-0.1c11.3,0,22.6,0,33.9,0.1c2,0,4.1,0.1,6.1,0
			c3.8-0.2,7.6,0.3,11.3,0.9c7.4,1.2,14.6,3,21.6,5.5c17,6.1,31.8,15.6,44.4,28.5c4.4,4.5,8.5,9.4,12.1,14.6
			c0.4,0.6,0.8,1.2,1.2,1.9c-0.6,0.2-0.9-0.1-1.2-0.3c-3.8-2.1-7.6-4.1-11.4-6.2c-4.5-2.4-9-4.5-13.8-6.2c-6.5-2.4-13.1-4-19.9-4.8
			c-4.1-0.5-8.1-0.7-12.2-0.6c-2.2,0.1-4.3,0.5-6.3,1.2c-3.4,1.2-5.8,3.6-7.7,6.6c-1.5,2.3-2.5,4.9-3.3,7.6c-1.3,4.2-2,8.4-2.6,12.7
			c-0.4,3.7-0.8,7.4-1.2,11.1c-0.1,0.7-0.2,1.4-0.3,2.1c-0.5,0.5-1.1,0.4-1.6,0.4c-2,0-4.1,0.1-6.1,0.1c-10.6,0-21.3-0.1-31.9-0.1
			c-0.7,0-1.3-0.1-2.1-0.1c-0.3-0.9-0.5-1.8-0.8-2.6c-1.7-6.4-4.9-11.9-9.6-16.5c-5.1-5-11.1-8.1-18.1-9.4
			c-11.1-2.1-21.1,0.5-29.9,7.6c-1.4,1.1-2.5,2.4-3.8,3.6c-0.4,0.4-0.9,0.7-1.6,0.7c-6.1,0-12.2,0-18.2,0
			C201.7,257.7,201.6,257.6,201.1,257.5z"/>
		<path class="st0" d="M20.8,360.1c2.2-0.3,567.7-0.3,570.2,0c0.1,0.2,0.2,0.5,0.2,0.8c0,2.8,0,5.7,0,8.5c0,0.1-0.1,0.2-0.2,0.4
			c-0.3,0-0.6,0.1-1,0.2c-0.6,0-1.2,0-1.8,0c-45.2,0-90.5,0-135.7,0c-95.7,0-191.3,0-287,0c-47.5,0-94.9,0-142.4,0
			c-0.8,0-1.5,0-2.4,0c-0.4-1.7-0.2-3.3-0.2-4.9C20.7,363.4,20.6,361.8,20.8,360.1z"/>
		<path class="st0" d="M20.9,469.7c-0.4-2-0.3-8.3,0-9.7c0.6-0.4,1.3-0.2,1.9-0.3c4.6,0,9.3-0.1,13.9-0.1c75.4,0,150.9,0,226.3,0
			c60.2,0,120.3,0,180.5,0c48.4,0,96.7,0,145.1,0c0.8,0,1.7-0.1,2.6,0.1c0.3,1.1,0.1,2.2,0.1,3.2c0,1.1,0,2.2,0,3.2
			c0,1.1,0.1,2.1-0.1,3.3c-0.4,0.1-0.6,0.1-0.9,0.2c-0.6,0-1.2,0-1.8,0c-44.9,0-89.9,0-134.8,0c-96.3,0-192.6,0-288.9,0
			c-47,0-94.1,0-141.1,0.1C22.8,469.7,21.9,469.7,20.9,469.7z"/>
		<path class="st0" d="M327.9,585.6c-13.6,8.1-31.2,7.6-43.6,0c0-0.6,0-1.2,0-1.9c0.1-5.4,0.3-10.7,0.4-16.1
			c0.1-6,0.3-11.9,0.5-17.9c0.2-5.8,0.4-11.5,0.6-17.3c0.2-6.4,0.3-12.9,0.5-19.3c0.2-5.7,0.4-11.3,0.6-16.9
			c0.1-3.2,0.2-6.4,0.3-9.6c0-0.9,0.1-1.8,0.2-2.6c0.6-0.5,1.3-0.3,1.9-0.3c5.6,0,11.2,0.1,16.8,0.1c5.7,0,11.4,0,17.1,0.1
			c0.6,0,1.2,0,1.9,0.1c0.1,0.5,0.2,0.8,0.2,1.2c0.1,3.7,0.2,7.5,0.4,11.2c0.2,5.5,0.4,11.1,0.5,16.6c0.2,6.8,0.4,13.6,0.6,20.4
			c0.2,5.6,0.4,11.2,0.5,16.8c0.1,2,0.1,4.1,0.1,6.1c0.3,8.8,0.5,17.6,0.8,26.3C327.9,583.6,328.2,584.7,327.9,585.6z"/>
		<path class="st0" d="M443.4,523.5c-2.1-1-4.2-1.4-6.2-2.1c-2-0.7-4-1.1-6.2-2.1c0.6-0.3,1-0.5,1.4-0.7c4.6-1.8,9.1-3.8,13.4-6.3
			c6-3.5,11.5-7.6,16.5-12.4c0.5-0.5,0.9-1,1.3-1.5c0.1-0.1,0.1-0.2,0.1-0.5c-0.3-0.1-0.6-0.3-1-0.2c-1.6,0.1-3.1,0.2-4.7,0.4
			c-5.1,0.7-10.1,2.1-14.9,4.2c-0.3,0.1-0.7,0.3-1,0.4c-0.1,0-0.2,0-0.5,0c0-0.3,0-0.5,0-0.8c0.1-1.5,0.3-3.1,0-4.8
			c-0.3,0.1-0.6,0-0.7,0.2c-0.4,0.4-0.8,0.9-1.2,1.4c-5.1,6.4-11.5,11.1-19.2,13.9c-0.8,0.3-1.6,0.5-2.5,0.8c0-0.4-0.1-0.7,0-1
			c1.3-5.7,3.4-11.1,6.6-16.1c0.4-0.6,0.8-1.2,1-2c-0.3-0.1-0.6-0.2-0.9-0.1c-1.2,0.1-2.2,0.4-3.3,0.8c-1.2,0.5-2.2,1.3-2.9,2.4
			c-1.1,1.8-2.3,3.7-3.4,5.5c-2.6,4.4-5.3,8.9-7.9,13.4c-0.5,0.9-1.1,1.5-1.9,2.1c-3.7,2.6-7.7,4.8-11.9,6.4c-0.5,0.2-1,0.6-1.8,0.4
			c0-0.9,0.2-1.8,0.3-2.7c1.2-6.9,3.6-13.5,7.2-19.5c0.4-0.6,0.7-1.3,1.1-1.9c0.6-1,0.6-2.1,0.3-3.2c-0.2-0.8-0.8-1-1.5-0.4
			c-0.4,0.4-0.9,0.9-1.2,1.3c-7.8,8.9-13.2,19.2-16.1,30.7c-0.2,0.6-0.3,1.3-0.5,1.9c-2.4,1.6-6,3-7.9,3.2c-0.3-1.3-0.5-2.7-0.5-4.1
			c0-1.4,0-2.9,0-4.3c0-1.4,0.2-2.8,0.2-4.1c0-1.4,0.6-2.7,0.4-4c-0.7-0.2-0.8,0.3-1.1,0.6c-1.2,1.9-2.2,3.8-3,5.9
			c-1.5,3.7-2.2,7.6-2.2,11.6c0,2.2,0.3,1.8-1.7,3.5c-0.5,0.5-1.1,0.9-1.8,1.2c-0.1-0.2-0.3-0.4-0.3-0.5c-0.1-5.2,0.3-10.5,1.4-15.6
			c1.3-6.1,3.4-11.9,6.3-17.4c1.8-3.3,3.7-6.4,5.9-9.3c0.9-0.2,1.5,0.3,2.1,0.7c1.4,0.8,2.3,2.1,3,3.5c0.2,0.5,0.5,1.1,0.7,1.5
			c0.5,0.2,0.7,0,0.9-0.2c0.5-0.6,0.9-1.3,1.4-1.9c5.3-7.1,12.3-11.8,20.9-13.8c1.7-0.4,3.6-0.6,5.3-0.9c0.3-0.1,0.7,0,1.1,0
			c0.6,1.7-0.1,3.5,0.2,5.2c0.4,0.4,0.8,0.2,1.2,0.1c1-0.4,2-0.8,3-1.2c4.5-1.8,9.1-3.5,13.8-4.6c2.8-0.6,5.5-1,8.4-1.3
			c5.2-0.6,10.3-0.7,15.5-0.6c3.4,0.1,6.7,0.3,10.1,0.5c2.7,0.2,5.4,0.3,8.1,0.5c0.7,0.1,1.5,0,2.1,0.5c-0.1,0.5-0.2,1.1-0.3,1.6
			c-3.1,11.1-8.4,21.1-16.2,29.6c-3.7,4-7.7,7.6-12.1,10.7c-0.6,0.4-1.3,0.7-1.6,1.5c0.4,0.9,1.2,1.6,1.7,2.5
			c0.5,0.8,0.9,1.7,1.1,2.7c-0.3,0.1-0.6,0.2-0.9,0.2c-2.1,0.3-4.2,0.7-6.1,1.4c-2.2,0.8-4.2,2-6,3.6c-0.7,0.6-0.8,0.8-0.4,1.7
			c0.3,0.7,0.7,1.4,1,2.1c0.2,0.5,0.6,1.1,0.6,1.6c-0.5,0.6-1.2,0.7-1.8,0.8c-5.9,1.7-11.8,2.7-17.9,2.8c-6.5,0.1-13-0.6-19.3-2.3
			c-3.6-1-9.1-3.1-11-4.2c0.2-0.3,0.4-0.6,0.6-0.8c3.7-3.3,8-5.2,13.1-5.3c2.6,0,5,0.3,7.4,1.2c2,0.7,4,1.4,6.1,1.7
			c5.7,0.8,11.1,0,16.2-2.8c0.3-0.2,0.5-0.4,0.7-0.6c-0.2-0.5-0.5-0.4-0.8-0.4c-1.7-0.1-3.4-0.1-5-0.3c-4.6-0.4-8.9-1.9-12.9-4.3
			c-0.2-0.1-0.4-0.3-0.6-0.4c-0.1-0.1-0.1-0.2-0.2-0.4c1.2-2,2.9-3.6,5-4.7c1.2-0.7,2.5-1.2,3.9-1.5c1.6-0.3,3-0.3,4.6,0.3
			c5.6,2.1,11.3,2.2,17,0.5C441.8,524.5,442.6,524.4,443.4,523.5z"/>
		<path class="st0" d="M428.4,263.1c0,0.6,0.1,1,0.1,1.4c0,6,0.1,11.9,0,17.9c-0.1,3.1-0.5,6.2-0.9,9.3c-1.1,8.2-3,16.2-5,24.2
			c-0.3,1.3-0.8,2.6-0.9,4c0.4,0.5,0.8,0.3,1.2,0.2c1.7-0.6,3.3-1.3,4.9-2.3c0.5-0.3,1-0.6,1.5-1c0.3,0.4,0.1,0.6,0,0.9
			c-3.2,9.1-8.2,16.9-15.1,23.7c-1.4,1.3-2.9,2.6-4.3,3.9c-0.5,0.4-1,0.6-1.6,0.6c-0.3,0-0.6,0-0.9,0c-12.3,0-24.5-0.1-36.8-0.1
			c-0.6,0-1.2,0-2,0c0.1-0.4,0.1-0.7,0.2-0.9c1.5-2.2,3.7-3.6,6.3-4.2c0.6-0.2,1.3-0.2,2-0.2c2.8,0,5.7,0.1,8.5,0.1
			c9.6,0.2,18.5-2.4,27-6.7c1.5-0.8,2.1-1.9,2.2-3.4c0-0.2-0.1-0.5-0.2-0.7c-0.7-0.3-1.3,0.1-2,0.3c-2.1,0.6-4.3,1.2-6.4,1.8
			c-5.9,1.4-11.9,1.9-17.9,1.4c-1.7-0.1-3.5-0.3-5.2-0.5c-0.4,0-0.8-0.2-1.3-0.3c0.2-0.3,0.3-0.5,0.5-0.7c2.6-2.6,5.1-5.2,8-7.6
			c0.4-0.3,0.7-0.6,1.1-0.9c0.3-0.3,0.7-0.4,1.2-0.3c1,0.1,1.9,0.3,2.9,0.3c6.7,0.5,12.7-1.2,18.1-5.2c0.7-0.5,1.4-1.1,2-1.8
			c1.5-1.7,1.9-3.6,1.2-5.7c-0.1-0.2-0.2-0.3-0.3-0.4c-0.7-0.1-1,0.4-1.4,0.8c-1.2,1.1-2.5,2.1-3.9,2.8c-4.2,2.1-8.6,2.4-13.1,0.9
			c-0.1,0-0.2-0.1-0.3-0.2c-0.1-0.1-0.2-0.1-0.3-0.2c0.3-0.6,0.8-1,1.3-1.4c2.7-2.5,5.3-5.1,7.7-7.8c3.7-4.2,6.9-8.8,9.7-13.6
			c0.7-1.2,1.3-2.4,1.9-3.7c0.9-1.9,1-3.9,0.9-6c0-0.2-0.1-0.4-0.2-0.8c-2.3-0.4-4.3,0.4-5.9,2c-0.6,0.5-1,1.2-1.5,1.8
			c-4.3,5.1-9.1,9.6-14.7,13.3c-0.5,0.4-1.1,0.8-1.8,1c-2-3.1-2.3-6.6-2.8-10c-0.6-0.2-0.8,0.1-1,0.4c-1.3,2.4-2.3,4.9-3,7.5
			c-0.8,3.1-1,6.3-0.7,9.5c0.1,1-0.1,1.7-0.6,2.5c-2.1,2.9-4.5,5.5-7.3,7.7c-0.3,0.2-0.7,0.4-1.2,0.7c-0.2-0.6-0.3-1.1-0.4-1.7
			c-0.9-5.1-1.3-10.3-1-15.4c0-0.7,0.1-1.4,0.1-2.2c0-0.8-0.4-1.2-1.3-1.1c-0.5,0.1-1,0.2-1.4,0.3c-1,0.3-1.6,1-1.8,2
			c-0.3,1.4-0.6,2.8-0.8,4.2c-1,6.3-1.4,12.6-1,18.9c0.1,1-0.2,1.8-0.8,2.7c-2.1,2.6-4.4,5.1-6.9,7.4c-0.3,0.2-0.6,0.4-0.9,0.7
			c-0.2-0.4-0.4-0.6-0.5-1c-1.8-4.8-3-9.6-3.3-14.7c-0.1-1.7-0.2-3.4-0.3-5c-0.1-0.8-0.5-1-1.2-0.9c-1.1,0.2-1.8,1-2,2.1
			c-0.3,1.7-0.6,3.3-0.8,5c-0.6,4.4-0.8,8.7-0.8,13.1c0,1.7,0,3.4-0.2,5c-0.3,3.8-2.3,6.5-5.6,8.3c-1.2,0.6-2.4,1-3.8,0.9
			c-2.3-0.1-4.6,0-6.9,0c-0.4,0-0.8-0.1-1.3-0.1c0-0.6-0.1-1.1,0-1.6c0.7-7.2,2.2-14.3,4.8-21c2.5-6.2,5.6-12,9.7-17.3
			c2.8-3.8,6-7.2,7.8-8.5c0.5,0.4,0.2,0.9,0.2,1.3c-0.1,2.1,0.5,4,1.6,5.8c0.3,0.5,0.6,1.1,1.3,1.3c0.2-0.2,0.5-0.5,0.6-0.8
			c0.4-0.7,0.8-1.5,1.2-2.2c4.9-9.1,11.6-16.6,20.2-22.4c0.4-0.3,0.9-0.5,1.4-0.8c1.1,1.6,0.6,3.3,0.9,4.9c0.5,0.4,1,0.1,1.4,0
			c3.4-1.3,6.9-2.5,10.3-4c10.3-4.4,20.1-9.6,29.3-15.8C426.7,264,427.4,263.5,428.4,263.1z"/>
		<path class="st0" d="M209.9,489.8c0.2,0.9,0.7,1.6,1.2,2.3c1.7,2.8,3.2,5.6,4.4,8.7c1.5,4,2.4,8.2,2.7,12.5c0,0.6,0.2,1.2-0.2,1.8
			c-0.3-0.1-0.7-0.1-1-0.2c-5.7-2.2-10.5-5.7-14.5-10.5c-0.7-0.8-1-1.8-1.2-2.8c-0.4-2-1.3-3.9-2.6-5.5c-1.9-2.5-4.4-4-7.4-4.8
			c-0.4-0.1-0.8-0.1-1.3-0.1c0,0.4-0.1,0.6-0.1,0.9c0.3,2,1,3.8,1.8,5.7c0.4,0.8,0.7,1.6,1,2.4c-0.3,0.4-0.6,0.3-0.9,0.2
			c-6.1-2.2-11.7-5.2-17-9.1c-0.8-0.6-1.5-1.2-2.5-1.6c-0.1,0.3-0.2,0.6-0.3,0.8c-0.1,0.4-0.1,0.8-0.2,1.3c-0.9-0.3-1.7-0.6-2.5-0.9
			c-6.3-2.4-12.8-4.1-19.5-5.2c-0.7-0.1-1.4-0.2-2.2-0.2c-0.1,0.5-0.2,0.8-0.2,1.1c0,0.4,0.1,0.8,0.2,1.2c0.2,1.4,0.8,2.5,2,3.3
			c2.3,1.5,4.5,3,6.8,4.4c6.7,4,13.8,6.7,21.3,8.6c0.4,0.1,0.8,0.2,1.2,0.3c0.2,0,0.3,0.1,0.5,0.2c-1.4,1.2-4.7,2.6-8.8,3.8
			c-3.1,0.9-6.2,1.4-9.3,1.8c0.2,1.4,0.7,2.2,2.5,3.9c2.9,0.1,5.8,0,8.7-0.2c3.5-0.2,7.1-0.7,10.6-1.2c5.4-0.7,10.4,0.5,14.9,3.5
			c0.2,0.1,0.4,0.3,0.6,0.5c-0.3,0.3-0.4,0.6-0.7,0.8c-3.4,2.2-7.1,3.7-11.2,4.4c-2.2,0.4-4.4,0.3-6.7,0.3c-0.5,0-1,0-1.8,0.1
			c0.3,0.4,0.3,0.6,0.5,0.7c0.4,0.3,0.8,0.5,1.2,0.7c7.6,3.7,15.4,4.2,23.4,1.3c1.4-0.5,2.8-1.2,4.1-1.8c4,0.8,8.8,3.7,11.1,6.6
			c-0.1,0.5-0.5,0.6-0.9,0.8c-5.8,3.1-11.8,5.3-18.4,6.1c-9,1.1-17.7,0-26.1-3.6c-0.3-0.1-0.5-0.3-0.7-0.4c0-0.5,0.3-0.4,0.5-0.5
			c0.2-0.1,0.5-0.2,0.7-0.2c1.5-0.4,2.8-1,4.1-1.8c0.3-0.2,0.5-0.5,0.7-0.7c-0.3-0.7-0.9-0.8-1.3-1c-1.9-0.8-3.8-1.6-5.6-2.6
			c-16.7-8.9-27.1-22.6-31.3-41c-0.1-0.3-0.1-0.7-0.1-1.1c2.1-0.7,4.3-0.9,6.4-1.2c2.2-0.3,4.4-0.5,6.6-0.7c2.2-0.2,4.3-0.2,6.5-0.2
			c2.2,0,4.5,0,6.7,0.1c2.2,0.1,4.3,0.2,6.5,0.5c2.1,0.2,4.3,0.6,6.4,0.9c2.2,0.4,4.4,0.9,6.5,1.3c2.1,0.4,4.1,1.2,6.4,1.5
			c0-0.4,0.2-0.7,0.1-0.9c-0.4-1-0.8-2-1.2-3c-0.2-0.4-0.4-0.9-0.6-1.4c0.3-0.1,0.5-0.2,0.7-0.3c23.7-2.6,46.5,11.2,55.2,33.6
			c1.6,4.1,2.8,8.3,3.2,12.7c0.3,2.7,0.2,5.4,0.2,8.1c0,0.9,0.1,1.8-0.2,2.8c-0.3-0.1-0.6-0.1-0.8-0.3c-4.4-2.9-7-7-7.9-12.2
			c-0.2-1.4-0.1-2.9-0.1-4.3c0-0.5,0.2-1.1-0.2-1.6c-0.5-0.2-0.9,0-1.4,0.2c-2,1.1-3.4,2.8-4,5.1c-0.1,0.5-0.2,0.9-0.3,1.5
			c-0.4-0.4-0.5-0.8-0.6-1.2c-2.4-7.2-5.5-14.1-9.4-20.6c-2.3-3.9-4.8-7.6-7.6-11.2c-0.5-0.6-1-1.2-1.5-1.8
			c-1.5-1.7-3.4-2.1-5.5-2.2C210.2,489.5,210.1,489.6,209.9,489.8z"/>
		<path class="st0" d="M331.8,425.5c0.2-0.6,0.4-1.1,0.5-1.5c1.7-7,3.4-13.9,5-20.9c0.9-3.7,1.7-7.4,2.6-11.1
			c0.1-0.6,0.3-1.1,0.5-1.7c1.6-0.3,8.7-0.2,10.4,0c0,0.3,0,0.7-0.1,1c-2,7.4-3.9,14.7-5.9,22.1c-2.3,8.6-4.6,17.2-6.9,25.8
			c-0.2,0.7-0.4,1.4-0.6,2.1c-1.8,0.3-3.6,0.1-5.4,0.1c-1.8,0-3.6,0.1-5.4-0.1c-0.4-0.6-0.5-1.3-0.7-1.9c-2.6-10.3-5.1-20.6-7.7-31
			c-0.2-0.6-0.1-1.3-0.7-1.8c-0.6,0.1-0.6,0.6-0.7,1c-0.7,2.8-1.4,5.6-2.1,8.4c-2,8-3.9,16-5.9,24c-0.1,0.5-0.3,0.9-0.4,1.3
			c-1.8,0.3-9.7,0.1-11.1-0.2c-0.1-0.2-0.2-0.4-0.3-0.6c-4.4-16.6-8.7-33.1-13.1-49.7c0-0.2,0-0.3,0-0.5c1.2-0.3,7.9-0.5,10.4-0.2
			c0.5,0.5,0.5,1.2,0.7,1.8c2,8.4,3.9,16.9,5.9,25.3c0.5,2,0.9,4,1.4,6c0.1,0.5,0.3,1,0.6,1.7c0.3-0.4,0.5-0.6,0.6-0.8
			c0.6-2.2,1.2-4.4,1.8-6.6c2.2-8.6,4.4-17.1,6.6-25.7c0.1-0.5,0.3-1,0.4-1.5c1.2-0.3,7.2-0.4,10.1-0.2c0.5,0.3,0.5,0.9,0.6,1.4
			c1.4,5.7,2.8,11.3,4.2,17c1.2,5,2.5,9.9,3.7,14.9C331,424.2,331,424.9,331.8,425.5z"/>
		<path class="st0" d="M320.8,345.7c-9.9,0-19.6,0-29.2,0c-0.6-0.7-0.4-1.3-0.4-2c0.1-2.9,0.2-5.9,0.2-8.8c0.3-10,0.6-20.1,0.9-30.1
			c0.1-4.7,0.3-9.5,0.5-14.2c0-0.5,0.1-1.1,0.1-1.5c0.6-0.5,1.2-0.3,1.8-0.4c5.2,0,10.5-0.1,15.7-0.1c2.2,0,4.5,0,6.7,0
			c0.6,0,1.2,0,1.9,0.1c0.1,0.6,0.2,1.1,0.2,1.7c0.1,3.9,0.3,7.8,0.4,11.7c0.2,5.7,0.4,11.4,0.5,17.1c0.2,7,0.4,13.9,0.6,20.9
			c0,1.4,0.1,2.9,0.2,4.3C320.9,344.7,320.8,345.1,320.8,345.7z"/>
		<path class="st0" d="M264.4,405.1c-1.6,0.2-8.3,0.3-10.4,0.1c-0.1-0.4-0.3-0.7-0.4-1.1c-0.6-3.7-3-5.6-6.5-6.3
			c-2.1-0.4-4.2-0.5-6.3-0.1c-1.7,0.3-3.2,1.1-4.3,2.4c-0.7,0.8-1.1,1.7-1.1,2.8c0,0.2,0,0.5,0,0.7c-0.2,1.9,0.7,3.2,2.4,4
			c1.1,0.5,2.3,1,3.5,1.3c3.6,1,7.2,1.9,10.8,2.9c1.2,0.3,2.4,0.7,3.6,1.1c2.9,1,5.4,2.7,7.4,5c1.4,1.6,2.4,3.5,2.7,5.6
			c0.5,3.4,0.2,6.7-1.3,9.8c-1.3,2.7-3.4,4.7-5.9,6.2c-2.8,1.7-5.9,2.6-9.2,3c-3.1,0.3-6.2,0.4-9.3-0.1c-3.1-0.5-6.1-1.3-8.9-2.9
			c-5.2-3.1-7.9-7.7-8.3-13.7c0-0.2,0-0.5,0.1-0.8c0.3-0.1,0.6-0.2,0.8-0.2c2.7,0,5.4,0,8.1,0c0.5,0,0.9,0.1,1.4,0.2
			c0.1,0.5,0.2,0.9,0.2,1.3c0.6,3.4,2.5,5.7,5.6,6.9c1.4,0.6,2.9,0.9,4.4,0.9c1.4,0,2.8,0,4.1-0.1c2-0.1,3.8-0.7,5.4-1.9
			c1.4-1,2.1-2.3,2.3-3.9c0.2-1.9-0.4-3.5-2-4.8c-1.3-1-2.8-1.7-4.3-2.1c-2.1-0.6-4.3-1.2-6.4-1.8c-2.8-0.8-5.5-1.6-8.3-2.5
			c-2.5-0.8-4.7-2.2-6.5-4.1c-1.7-1.9-2.8-4-3.1-6.6c-0.8-6.3,1.7-11,7-14.3c3.3-2.1,7-3.1,11-3.1c2.9,0,5.8,0.1,8.6,0.8
			c2.9,0.7,5.6,1.9,7.9,3.9C262.8,396.7,264.3,400.5,264.4,405.1z"/>
		<path class="st0" d="M382.7,423.1c0,0.9-0.1,1.5-0.1,2.2c0,4.8,0,9.5,0,14.3c0,0.6,0.1,1.3-0.1,1.9c-1.5,0.3-9.1,0.3-10.7,0
			c0-0.3-0.1-0.6-0.1-1c0-0.4,0-0.7,0-1.1c0-15.6,0-31.3,0-46.9c0-0.7-0.1-1.4,0.2-2.2c0.4,0,0.7-0.1,1.1-0.1
			c7.8,0,15.6,0.1,23.4,0.1c2.2,0,4.4,0.4,6.5,1.3c5.5,2.3,8.6,6.3,9.5,12.2c0.5,3.2,0.1,6.3-1,9.4c-1.3,3.5-3.7,6-6.9,7.7
			c-2.4,1.3-5,2-7.8,2c-3.9,0-7.8,0.1-11.7,0.1C384.3,423,383.6,423.1,382.7,423.1z M382.9,414.5c0.4,0,0.9,0.1,1.4,0.1
			c0.9,0,1.8,0,2.7,0c2.4-0.1,4.8-0.1,7.2-0.2c1.3,0,2.6-0.3,3.8-0.9c2.3-1.1,3.6-3,3.8-5.5c0.1-0.9,0.1-1.8,0-2.7
			c-0.2-2.9-1.7-4.8-4.4-5.9c-1.2-0.5-2.5-0.7-3.9-0.7c-3.2,0-6.5-0.1-9.7-0.1c-0.3,0-0.7,0.1-1.1,0.1c-0.1,0.3-0.1,0.6-0.1,0.8
			c0,4.8,0,9.5,0,14.3C382.7,414,382.8,414.2,382.9,414.5z"/>
		<path class="st0" d="M498.5,390.2c0.8,0,1.3,0,1.9,0c6.2,0,12.4,0,18.6,0.1c1.8,0,3.6,0.1,5.4,0.2c3,0.2,5.8,1.2,8.2,2.9
			c2.9,2,4.9,4.7,5.8,8.2c1,4.1,0.9,8.1-0.6,12c-1.3,3.3-3.7,5.8-6.8,7.4c-2.4,1.3-5,2-7.8,2c-3.9,0-7.8,0.1-11.7,0.1
			c-0.6,0-1.3,0-1.9,0.1c-0.4,0.7-0.3,1.4-0.3,2c0,4.8,0,9.6,0,14.4c0,0.6,0.1,1.3-0.1,1.9c-0.2,0.1-0.3,0.2-0.4,0.2
			c-3.2,0-6.4,0-9.6,0c-0.2,0-0.5-0.1-0.8-0.1c0-0.4-0.1-0.7-0.1-1.1c0-0.4,0-0.8,0-1.3c0-15.6,0-31.1,0-46.7
			C498.3,391.8,498.2,391.1,498.5,390.2z M509.5,414.4c0.3,0.1,0.5,0.2,0.8,0.2c3.8-0.1,7.6-0.1,11.3-0.3c1.2,0,2.4-0.4,3.4-1
			c1.7-1,2.8-2.4,3.2-4.3c0.3-1.6,0.3-3.2,0-4.8c-0.5-2-1.7-3.6-3.6-4.4c-1.4-0.6-2.8-0.9-4.4-0.9c-3.2,0-6.4,0-9.5-0.1
			c-0.4,0-0.8,0.1-1.2,0.1C509.3,400.4,509.2,412.8,509.5,414.4z"/>
		<path class="st0" d="M446.2,423.1c-0.4,0.8-0.3,1.5-0.3,2.1c0,4.8,0,9.5,0,14.3c0,0.7,0,1.3,0,2c-1.3,0.4-2.5,0.2-3.6,0.2
			c-1.1,0-2.3,0-3.4,0c-1.2,0-2.4,0.1-3.6-0.1c-0.1-0.4-0.2-0.7-0.2-1c0-0.5,0-1.1,0-1.6c0-15.4,0-30.8,0-46.2
			c0-0.8-0.2-1.7,0.3-2.5c0.3,0,0.6-0.1,0.9-0.1c8.2,0.1,16.4,0.1,24.5,0.2c4,0.1,7.6,1.6,10.6,4.4c2.1,2,3.4,4.3,4,7.1
			c0.9,3.7,0.7,7.4-0.5,11c-1.3,3.6-3.6,6.2-7,7.9c-2.4,1.3-5,2-7.8,2c-4,0-8.1,0.1-12.1,0.1C447.4,423,446.8,423.1,446.2,423.1z
			 M446.1,398.8c-0.1,0.4-0.2,0.6-0.2,0.7c0,4.7,0,9.4,0,14.1c0,0.3,0.1,0.6,0.2,0.8c0.3,0.1,0.6,0.1,0.8,0.1
			c3.7-0.1,7.5-0.1,11.2-0.3c1,0,2-0.4,3-0.7c2.5-1,3.8-2.9,4-5.5c0.1-1.1,0.1-2.2,0-3.2c-0.3-2.4-1.6-4.2-3.9-5.2
			c-1.3-0.6-2.7-0.9-4.2-0.9c-3.1,0-6.3,0-9.4-0.1C447.1,398.7,446.7,398.8,446.1,398.8z"/>
		<path class="st0" d="M143.4,399.5c-0.8,0-1.4-0.1-2-0.1c-3.8,0-7.6,0-11.4-0.1c-0.6,0-1.2-0.1-1.8-0.1c-0.4-1.6-0.2-3.1-0.3-4.5
			c-0.1-1.4-0.1-2.9,0-4.3c0.6-0.4,1.3-0.2,1.8-0.2c4.7,0,9.4,0,14.1,0c7.9,0,15.9,0,23.8,0c0.7,0,1.3,0,2,0
			c0.1,0.3,0.2,0.5,0.2,0.7c0,2.6,0,5.2,0,7.8c0,0.2-0.1,0.3-0.1,0.5c-0.5,0.4-1,0.2-1.6,0.3c-3.8,0-7.7,0-11.5,0c-0.7,0-1.3,0-2,0
			c-0.1,0.4-0.2,0.8-0.2,1.1c0,0.5,0,1.1,0,1.6c0,12.4,0,24.8,0,37.2c0,0.7,0.1,1.4-0.2,2.1c-1.5,0.3-9,0.3-10.8,0
			c0-0.3-0.1-0.6-0.1-1c0-0.6,0-1.2,0-1.8c0-12.3,0-24.5,0-36.8C143.5,401.2,143.4,400.5,143.4,399.5z"/>
		<path class="st0" d="M72.9,422.8c3.3,0,6.3,0,9.3,0c0.6,0.5,0.4,1.1,0.4,1.6c0,1.6,0.1,3.1,0.5,4.7c0.4,1.7,1.3,3.1,2.9,3.9
			c1.5,0.8,5.2,0.9,6.7,0.1c1.7-0.9,2.5-2.4,2.8-4.2c0.1-0.8,0.1-1.6,0.1-2.3c0.1-6.1,0.1-12.3,0.1-18.4c0-5.2,0-10.5,0-15.7
			c0-0.7,0-1.3,0.1-2c1.9-0.3,3.7-0.1,5.5-0.2c1.7,0,3.5-0.1,5.2,0.1c0.4,0.7,0.3,1.4,0.3,2c0,3,0,6,0,9c0,8.5-0.1,17-0.1,25.4
			c0,1.7-0.2,3.4-0.6,5c-1.2,4.9-4.2,8.3-8.9,9.9c-5.4,1.8-10.8,1.7-16-0.7c-4.1-1.9-6.7-5.1-7.8-9.4c-0.3-1-0.4-2.1-0.4-3.2
			c-0.1-1.4-0.1-2.9-0.1-4.3C72.8,423.7,72.9,423.3,72.9,422.8z"/>
		<path class="st0" d="M416,557.7c-4.4,1.9-13.3,3.2-21.6,2.7c-8.6-0.5-18.2-3.1-24.5-6.9c0.5-0.6,1.3-0.8,1.9-1.2
			c0.7-0.4,1.3-0.8,2-1.2c0.6-0.4,1.2-0.8,1.7-1.3c0.6-0.5,1.2-1,1.9-1.5c0.8,0.3,1.6,0.6,2.3,1c6,2.5,12.3,4.2,18.7,4.9
			c3.5,0.4,7.1,0.7,10.6,0.6c1.2,0,2.4,0,3.6,0.1C414.2,554.9,415.6,556.1,416,557.7z"/>
		<path class="st0" d="M235.7,544.5c-1.8,1.2-5.3,2.3-10.6,3.1c-6.2,1-12.3,0.8-18.4-0.6c-3.6-0.8-7.9-2.3-9.5-3.4
			c0.6-0.3,1.3-0.3,1.9-0.4c8.7-0.8,17.2-2.7,25.4-5.6c0.5-0.2,0.9-0.3,1.4-0.5c1.1-0.5,2.2-0.3,3.3,0.2
			C232.3,538.8,234.6,541.1,235.7,544.5z"/>
	</g>
</g>
</svg>
